<svg xmlns="http://www.w3.org/2000/svg"  viewBox="0 0 100 100" width="100px" height="100px"><path fill="#fefdef" d="M50,87c-7.764,0-29-16.441-29-29l0-34.871c0-3.664,2.481-6.886,6.04-7.757 C32.011,14.156,39.771,13,50,13s17.989,1.156,22.96,2.372c3.559,0.871,6.04,4.093,6.04,7.757L79,58C79,70.559,57.764,87,50,87z"/><path fill="#a4a29a" d="M12,46.5h-1.5c0,6.627,4.477,12,10,12v-7C14,51.5,12,46.5,12,46.5z"/><path fill="#d1cfc2" d="M20.5,41.5v-7c-5.523,0-10,5.373-10,12c0,1.002,0.114,1.97,0.307,2.901 C10.873,49.103,12.656,41.5,20.5,41.5z"/><path fill="#a4a29a" d="M88,46.5h1.5c0,6.627-4.477,12-10,12v-7C86,51.5,88,46.5,88,46.5z"/><path fill="#d1cfc2" d="M79.5,41.5v-7c5.523,0,10,5.373,10,12c0,1.002-0.114,1.97-0.307,2.901 C89.127,49.103,87.344,41.5,79.5,41.5z"/><circle cx="30.5" cy="49.5" r="3" fill="#f3cbca"/><circle cx="69.5" cy="49.5" r="3" fill="#f3cbca"/><g><path fill="#1f212b" d="M50,88c-8.25,0-30-16.67-30-30V23.129c0-4.159,2.797-7.748,6.802-8.729 C30.465,13.504,38.35,12,50,12s19.535,1.504,23.198,2.4C77.203,15.381,80,18.97,80,23.129V58C80,71.33,58.25,88,50,88z M50,14 c-11.44,0-19.147,1.468-22.723,2.344C24.17,17.104,22,19.895,22,23.129V58c0,11.807,20.7,28,28,28s28-16.193,28-28V23.129 c0-3.234-2.17-6.025-5.277-6.785C69.147,15.468,61.44,14,50,14z"/><path fill="#1f212b" d="M20.5,59C14.71,59,10,53.393,10,46.5S14.71,34,20.5,34v1c-5.238,0-9.5,5.159-9.5,11.5 S15.262,58,20.5,58V59z"/><path fill="#1f212b" d="M11.289,49.533l-0.978-0.209C10.329,49.24,12.192,41,20.5,41v1 C12.991,42,11.305,49.458,11.289,49.533z"/><path fill="#1f212b" d="M20.5,52c-6.76,0-8.943-5.261-8.964-5.314l0.928-0.372C12.542,46.505,14.436,51,20.5,51V52z"/><path fill="#1f212b" d="M79.5,59v-1c5.238,0,9.5-5.159,9.5-11.5S84.738,35,79.5,35v-1C85.29,34,90,39.607,90,46.5 S85.29,59,79.5,59z"/><path fill="#1f212b" d="M88.711,49.534C88.645,49.227,86.991,42,79.5,42v-1c8.308,0,10.171,8.24,10.189,8.324L88.711,49.534 z"/><path fill="#1f212b" d="M79.5,52v-1c6.091,0,8.017-4.639,8.036-4.686l0.929,0.371C88.443,46.739,86.26,52,79.5,52z"/><path fill="#1f212b" d="M50,62c-2.535,0-3.501-1.306-3.832-1.983c-1.321,0.126-2.927,0.922-2.944,0.931 c-0.119,0.059-0.255,0.067-0.382,0.027C42.767,60.949,41,60.339,41,58.5c0-1.633,1.04-3.211,1.084-3.277 c0.153-0.229,0.463-0.291,0.693-0.139c0.229,0.152,0.292,0.463,0.14,0.692C42.907,55.791,42,57.174,42,58.5 c0,0.858,0.664,1.292,0.988,1.452C43.563,59.688,45.18,59,46.5,59c0.229,0,0.429,0.156,0.485,0.379C47.002,59.439,47.458,61,50,61 s2.998-1.561,3.016-1.627C53.076,59.156,53.275,59,53.5,59c1.32,0,2.938,0.688,3.512,0.952C57.335,59.793,58,59.359,58,58.5 c0-1.333-0.907-2.709-0.916-2.723c-0.153-0.229-0.091-0.54,0.139-0.693c0.229-0.153,0.54-0.092,0.693,0.139 C57.96,55.289,59,56.867,59,58.5c0,1.839-1.767,2.449-1.842,2.475c-0.126,0.04-0.264,0.031-0.382-0.027 c-0.017-0.009-1.626-0.805-2.944-0.931C53.501,60.694,52.535,62,50,62z"/><path fill="#1f212b" d="M33,60c-5.823,0-6.974-4.335-6.985-4.379c-0.067-0.268,0.096-0.539,0.364-0.606 c0.267-0.063,0.538,0.096,0.605,0.362l0,0C27.023,55.524,27.982,59,33,59c6.609,0,8.979-3.612,9.077-3.767 c0.147-0.232,0.456-0.304,0.689-0.155c0.233,0.146,0.304,0.453,0.158,0.687C42.816,55.938,40.194,60,33,60z"/><path fill="#1f212b" d="M67,60c-7.194,0-9.816-4.063-9.924-4.235c-0.146-0.233-0.075-0.54,0.158-0.687 c0.234-0.148,0.542-0.077,0.689,0.155C58.021,55.388,60.391,59,67,59c5.018,0,5.977-3.476,6.016-3.623 c0.068-0.268,0.34-0.433,0.607-0.36c0.267,0.068,0.429,0.338,0.362,0.604C73.974,55.665,72.823,60,67,60z"/><path fill="#1f212b" d="M30.5,53c-1.93,0-3.5-1.57-3.5-3.5s1.57-3.5,3.5-3.5s3.5,1.57,3.5,3.5S32.43,53,30.5,53z M30.5,47 c-1.378,0-2.5,1.121-2.5,2.5s1.122,2.5,2.5,2.5s2.5-1.121,2.5-2.5S31.878,47,30.5,47z"/><path fill="#1f212b" d="M69.5,53c-1.93,0-3.5-1.57-3.5-3.5s1.57-3.5,3.5-3.5s3.5,1.57,3.5,3.5S71.43,53,69.5,53z M69.5,47 c-1.378,0-2.5,1.121-2.5,2.5s1.122,2.5,2.5,2.5s2.5-1.121,2.5-2.5S70.878,47,69.5,47z"/><path fill="#1f212b" d="M46.5,59.5c-1.5,0-3.5,1-3.5,1V61h4.798C46.731,60.408,46.5,59.5,46.5,59.5z"/><path fill="#1f212b" d="M52.202,61H57v-0.5c0,0-2-1-3.5-1C53.5,59.5,53.269,60.408,52.202,61z"/><path fill="#1f212b" d="M50,87c-0.077,0-0.153-0.018-0.224-0.053C46.862,85.491,47,83,47,81.271c0-0.261,0-2.102,0-2.283 c0-1.488-0.256-4.596-0.834-5.117c-0.154-0.138-0.207-0.357-0.132-0.551C46.107,73.128,46.293,73,46.5,73h7 c0.207,0,0.393,0.128,0.467,0.32c0.074,0.193,0.021,0.413-0.132,0.551C53.256,74.393,53,77.5,53,78.988c0,0.181,0,2.022,0,2.283 c0,1.729,0.138,4.22-2.776,5.676C50.153,86.982,50.077,87,50,87z"/><path fill="#1f212b" d="M72.91,29.231c0,0-0.175-0.281-0.27-0.412c-1.947-2.705-4.756-3.814-7.134-3.814 c-5.506,0-10.825,4.027-10.825,4.027c-1.681,1.454-0.05,4.118,2.681,2.422C61.848,28.582,64,27,67,27 c2.56,0,3.91,1.797,5.146,2.854c0.195,0.195,0.512,0.195,0.707,0C73.024,29.683,73.036,29.425,72.91,29.231z"/><path fill="#1f212b" d="M27.089,29.231c0,0,0.175-0.281,0.27-0.412c1.947-2.705,4.756-3.814,7.134-3.814 c5.506,0,10.826,4.027,10.826,4.027c1.681,1.454,0.05,4.118-2.681,2.422C38.152,28.582,35.999,27,32.999,27 c-2.56,0-3.91,1.797-5.146,2.854c-0.195,0.195-0.512,0.195-0.707,0C26.975,29.683,26.963,29.425,27.089,29.231z"/><path fill="#1f212b" d="M69,59.5l-3.512,3.863C64.54,64.406,63.197,65,61.788,65H56.65c-0.395,0-0.753-0.233-0.914-0.594 l-2.179-4.902c-0.019,0-0.039-0.004-0.057-0.004c0,0-0.5,2-3.5,2s-3.5-2-3.5-2c-0.019,0-0.039,0.004-0.057,0.004l-2.179,4.902 C44.103,64.767,43.745,65,43.35,65h-5.138c-1.409,0-2.752-0.594-3.7-1.637L31,59.5l-2.456-0.65l4.956,7.292 c0.853,1.208,2.196,1.978,3.67,2.1l9.054,0.755c0.38,0.031,0.745-0.155,0.941-0.482L50,64l2.835,4.514 c0.196,0.327,0.561,0.514,0.941,0.482l9.054-0.755c1.474-0.123,2.818-0.892,3.67-2.1l4.956-7.292L69,59.5z"/><path fill="#1f212b" d="M37.5,42c-4.754,0-6.38-3.143-6.447-3.276c-0.105-0.211-0.049-0.467,0.135-0.614 C31.295,38.023,33.861,36,37,36c4.736,0,6.847,3.599,6.934,3.752c0.125,0.219,0.068,0.497-0.134,0.648 C43.713,40.465,41.619,42,37.5,42z"/><path fill="#1f212b" d="M56.2,40.4c-0.202-0.151-0.259-0.43-0.134-0.648C56.153,39.599,58.264,36,63,36 c3.139,0,5.705,2.023,5.813,2.109c0.184,0.147,0.24,0.403,0.135,0.614C68.88,38.857,67.254,42,62.5,42 C58.381,42,56.287,40.465,56.2,40.4z"/></g></svg>